<svg width="135" height="28" viewBox="0 0 135 28" fill="none" xmlns="http://www.w3.org/2000/svg">
<path d="M113.759 27.2402V0.240234H117.734L131.028 20.3027V0.240234H135.003V27.2402H131.028L117.734 7.15898V27.2402H113.759Z" fill="white"/>
<path d="M92.0061 27.2402V0.240234H109.256V3.93398H95.9249V11.509H107.006V15.2027H95.9249V23.5465H109.256V27.2402H92.0061Z" fill="white"/>
<path d="M82.4568 27.2402V0.240234H86.3755V27.2402H82.4568Z" fill="white"/>
<path d="M50.1848 27.2402V0.240234H53.7286L63.5161 20.5465L73.2473 0.240234H76.8286V27.2215H73.1161V8.75273L64.3973 27.2402H62.6161L53.8786 8.75273V27.2402H50.1848Z" fill="white"/>
<path d="M23.6272 27.2402L32.4022 0.240234H38.0459L46.8209 27.2402H42.7522L34.6709 2.60274H35.6834L27.6959 27.2402H23.6272ZM28.1834 21.1465V17.4715H42.2834V21.1465H28.1834Z" fill="white"/>
<path d="M0.343506 27.2402V0.240234H8.79976C9.04976 0.240234 9.51225 0.246485 10.1873 0.258985C10.8748 0.271484 11.531 0.321484 12.156 0.408983C14.2685 0.671484 16.0435 1.42773 17.481 2.67773C18.931 3.92773 20.0248 5.51523 20.7623 7.44023C21.4998 9.35273 21.8685 11.4527 21.8685 13.7402C21.8685 16.0402 21.4998 18.1527 20.7623 20.0777C20.0248 21.9902 18.931 23.5715 17.481 24.8215C16.0435 26.059 14.2685 26.809 12.156 27.0715C11.531 27.159 10.8748 27.209 10.1873 27.2215C9.51225 27.234 9.04976 27.2402 8.79976 27.2402H0.343506ZM4.35601 23.509H8.79976C9.22476 23.509 9.73101 23.4965 10.3185 23.4715C10.906 23.4465 11.4248 23.3965 11.8748 23.3215C13.2498 23.059 14.3623 22.4652 15.2123 21.5402C16.0748 20.6027 16.706 19.4527 17.106 18.0902C17.506 16.7277 17.706 15.2777 17.706 13.7402C17.706 12.1527 17.4998 10.684 17.0873 9.33398C16.6748 7.97148 16.0373 6.83398 15.1748 5.92148C14.3248 4.99648 13.2248 4.40898 11.8748 4.15898C11.4248 4.07148 10.8998 4.02148 10.2998 4.00898C9.71226 3.98398 9.21226 3.97148 8.79976 3.97148H4.35601V23.509Z" fill="white"/>
</svg>
